<svg width="800" height="591" viewBox="0 0 800 591" fill="none" xmlns="http://www.w3.org/2000/svg">
<g clip-path="url(#clip0_1_4)">
<path opacity="0.1" d="M8.61075 282.918C21.2432 331.739 47.9628 373.942 90.1874 394.4C177.968 436.916 375.935 414.989 523.685 389.818C600.113 376.8 667.29 340.874 716.089 290.315L8.61075 282.918Z" fill="#6C63FF"/>
<path opacity="0.1" d="M783.404 53.1118H702.336C698.489 53.1118 695.333 50.2609 695.333 46.7773C695.333 43.2938 698.489 40.4356 702.336 40.4356H716.358C712.503 40.4356 709.354 37.5848 709.354 34.0939C709.354 30.6031 712.503 27.7595 716.358 27.7595H706.351C702.496 27.7595 699.34 24.9086 699.34 21.4178C699.34 17.9269 702.496 15.0834 706.351 15.0834H748.663C739.274 11.1343 728.299 8.32711 715.652 6.85078C600.273 -6.55262 559.081 2.31268 544.55 11.4252C526.438 22.925 506.32 30.9044 485.249 34.9448C414.065 48.2318 280.94 64.217 160.281 29.854C100.311 12.7416 55.7372 41.6211 29.0249 89.8965H797.484C796.48 75.8677 793.476 62.9079 787.964 51.57C786.658 52.578 785.053 53.1206 783.404 53.1118Z" fill="#6C63FF"/>
<path opacity="0.1" d="M1.73814 181.015C-1.37565 209.408 -0.317185 238.105 4.8799 266.192L716.634 289.747C736.227 269.427 752.873 246.459 766.088 221.516L1.73814 181.015ZM283.246 241.777H269.231C273.086 241.777 276.242 244.636 276.242 248.119C276.242 251.603 273.086 254.454 269.231 254.454H188.164C184.317 254.454 181.16 251.603 181.16 248.119C181.16 244.636 184.317 241.777 188.164 241.777H202.185C198.331 241.777 195.182 238.927 195.182 235.443C195.182 231.959 198.331 229.101 202.185 229.101H192.171C188.317 229.101 185.16 226.25 185.16 222.767C185.16 219.283 188.317 216.425 192.171 216.425H273.239C277.093 216.425 280.242 219.276 280.242 222.767C280.242 226.258 277.093 229.101 273.239 229.101H283.246C287.1 229.101 290.249 231.952 290.249 235.443C290.249 238.934 287.1 241.777 283.246 241.777Z" fill="#6C63FF"/>
<path opacity="0.1" d="M797.513 90.3329L20.4505 107.424C10.9962 129.409 4.72719 154.266 1.83997 180.026H783.898C788.988 164.955 792.764 149.472 795.185 133.75C797.52 118.616 798.451 103.976 797.513 90.3329ZM159.612 146.368H145.597C149.452 146.368 152.608 149.226 152.608 152.71C152.608 156.194 149.452 159.052 145.597 159.052H64.5297C60.6825 159.052 57.5262 156.194 57.5262 152.71C57.5262 149.226 60.6825 146.368 64.5297 146.368H78.5513C74.6968 146.368 71.5478 143.517 71.5478 140.034C71.5478 136.55 74.6968 133.692 78.5513 133.692H68.5369C64.6824 133.692 61.5261 130.841 61.5261 127.358C61.5261 123.874 64.6824 121.016 68.5369 121.016H149.605C153.459 121.016 156.608 123.867 156.608 127.358C156.608 130.849 153.459 133.692 149.605 133.692H159.612C163.466 133.692 166.615 136.55 166.615 140.034C166.615 143.517 163.466 146.368 159.612 146.368Z" fill="#6C63FF"/>
<path opacity="0.1" d="M396.415 568.048C575.946 568.048 721.485 554.659 721.485 538.143C721.485 521.627 575.946 508.238 396.415 508.238C216.883 508.238 71.3441 521.627 71.3441 538.143C71.3441 554.659 216.883 568.048 396.415 568.048Z" fill="#6C63FF"/>
<g opacity="0.1">
<path opacity="0.1" d="M614.338 206.658C614.488 206.374 614.619 206.08 614.731 205.778C615.552 203.494 615.189 200.985 615.196 198.556C615.196 197.746 615.271 196.938 615.422 196.142C614.75 197.579 614.424 199.153 614.469 200.738C614.462 202.694 614.694 204.745 614.338 206.658Z" fill="black"/>
<path opacity="0.1" d="M703.994 316.496C700.976 318.743 696.504 318.154 693.457 315.936C690.409 313.718 688.555 310.234 687.268 306.693C685.66 302.402 684.468 297.558 680.802 294.802C679.486 293.813 677.893 293.166 676.606 292.176C673.697 289.951 672.242 286.278 671.195 282.758C669.85 278.322 668.788 273.762 666.832 269.573C664.875 265.384 661.806 261.486 657.574 259.573C653.617 257.792 649.05 257.908 644.956 256.461C637.901 253.974 632.687 248.046 625.683 245.254C623.441 244.309 621.315 243.108 619.349 241.676C615.902 239.297 614.985 237.952 614.476 233.756C613.749 227.458 607.349 221.967 608.345 216.032C608.183 216.353 608.04 216.684 607.916 217.022C605.734 223.421 613.007 229.218 613.734 235.93C614.207 240.127 615.189 241.472 618.607 243.85C620.574 245.283 622.699 246.483 624.941 247.428C631.945 250.221 637.159 256.155 644.214 258.635C648.308 260.09 652.875 259.966 656.832 261.748C661.064 263.661 664.104 267.566 666.09 271.748C668.075 275.93 669.137 280.475 670.453 284.933C671.522 288.453 672.926 292.126 675.864 294.351C677.18 295.34 678.773 295.987 680.06 296.976C683.697 299.733 684.918 304.576 686.526 308.867C687.849 312.394 689.704 315.885 692.751 318.096C695.798 320.307 700.271 320.903 703.289 318.656C705.216 317.201 706.198 314.983 706.845 312.605C706.27 314.139 705.284 315.485 703.994 316.496Z" fill="black"/>
<path opacity="0.1" d="M718.94 294.686C718.661 295.207 718.54 295.798 718.591 296.387C720.234 294.766 723.943 295.718 725.238 293.631C725.538 293.115 725.656 292.513 725.572 291.922C723.885 293.522 720.176 292.569 718.94 294.686Z" fill="black"/>
<path opacity="0.1" d="M708.256 307.122C708.118 307.849 707.98 308.627 707.805 309.383C712.256 310.773 717.398 307.202 718.125 302.693C716.358 306.162 711.994 308.482 708.256 307.122Z" fill="black"/>
</g>
<path d="M590.789 312.605C594.404 312.605 597.335 310.619 597.335 308.169C597.335 305.719 594.404 303.733 590.789 303.733C587.174 303.733 584.244 305.719 584.244 308.169C584.244 310.619 587.174 312.605 590.789 312.605Z" fill="#575A89"/>
<path fill-rule="evenodd" clip-rule="evenodd" d="M626.436 330.75C626.436 454.661 525.987 555.11 402.077 555.11C278.166 555.11 177.717 454.661 177.717 330.75C177.717 206.84 278.166 106.391 402.077 106.391C525.987 106.391 626.436 206.84 626.436 330.75ZM547.536 330.903C547.536 411.234 482.415 476.355 402.084 476.355C321.753 476.355 256.632 411.234 256.632 330.903C256.632 250.572 321.753 185.451 402.084 185.451C482.415 185.451 547.536 250.572 547.536 330.903Z" fill="#101D71"/>
<path d="M601.713 50.3482C601.713 50.3482 540.477 46.661 547.699 89.5693C547.699 89.5693 546.245 97.1473 553.139 100.595C553.139 100.595 553.248 97.4164 559.415 98.4927C561.613 98.8605 563.847 98.9679 566.07 98.8127C569.074 98.6085 571.929 97.4287 574.2 95.4528C574.2 95.4528 591.415 88.3475 598.113 60.2098C598.113 60.2098 603.065 54.0717 602.869 52.5009L592.535 56.9081C592.535 56.9081 596.062 64.3625 593.262 70.5587C593.262 70.5587 592.927 57.1844 590.942 57.468C590.542 57.5335 585.575 60.0498 585.575 60.0498C585.575 60.0498 591.647 73.0387 587.029 82.4712C587.029 82.4712 588.767 66.4715 583.64 60.988L576.368 65.2352C576.368 65.2352 583.466 78.6458 578.651 89.5911C578.651 89.5911 579.888 72.8059 574.84 66.2679L568.244 71.4096C568.244 71.4096 574.913 84.6312 570.848 93.7074C570.848 93.7074 570.317 74.1659 566.819 72.6896C566.819 72.6896 561.052 77.7804 560.172 79.8676C560.172 79.8676 564.739 89.4602 561.91 94.5219C561.91 94.5219 560.172 81.504 558.746 81.4312C558.746 81.4312 553.001 90.0565 552.397 95.9764C552.397 95.9764 552.652 87.1766 557.35 80.6094C557.35 80.6094 551.794 81.5621 548.557 85.1694C548.557 85.1694 549.452 79.0676 558.739 78.5367C558.739 78.5367 563.488 71.9914 564.761 71.5987C564.761 71.5987 555.488 70.8205 549.866 73.315C549.866 73.315 554.812 67.5624 566.455 70.1733L573 64.8643C573 64.8643 560.797 63.1916 555.619 65.0388C555.619 65.0388 561.575 59.948 574.753 63.657L581.844 59.4171C581.844 59.4171 571.437 57.1771 565.233 57.9626C565.233 57.9626 571.779 54.4354 583.917 58.2608L589.007 55.9844C589.007 55.9844 581.378 54.4863 579.146 54.2536C576.913 54.0208 576.797 53.3954 576.797 53.3954C581.642 52.6077 586.61 53.1843 591.146 55.0608C591.146 55.0608 601.894 51.0245 601.713 50.3482Z" fill="#39DC00"/>
<path d="M538.907 31.2722C538.907 31.2722 511.271 29.5995 514.5 48.9882C514.5 48.9882 513.852 52.4136 516.958 53.9699C516.958 53.9699 517.001 52.5154 519.794 53.0245C520.786 53.1878 521.794 53.2366 522.798 53.1699C524.156 53.073 525.447 52.5399 526.478 51.65C526.478 51.65 534.252 48.4355 537.277 35.723C537.277 35.723 539.517 32.9521 539.459 32.2394L534.79 34.2321C534.79 34.2321 536.39 37.5993 535.132 40.3993C535.132 40.3993 534.979 34.3557 534.085 34.5012C533.903 34.5012 531.656 35.6648 531.656 35.6648C531.656 35.6648 534.405 41.5338 532.332 45.7955C532.332 45.7955 533.118 38.5666 530.805 36.0866L527.518 38.0066C527.518 38.0066 530.725 44.0719 528.55 49.0173C528.55 49.0173 529.103 41.432 526.827 38.4793L523.845 40.7993C523.845 40.7993 526.856 46.7701 525.023 50.8718C525.023 50.8718 524.783 42.0429 523.198 41.3738C523.198 41.3738 520.594 43.6719 520.194 44.6174C520.194 44.6174 522.26 48.9809 520.98 51.2427C520.98 51.2427 520.194 45.3592 519.525 45.3373C519.525 45.3373 516.929 49.2282 516.66 51.8827C516.785 49.4124 517.555 47.0179 518.892 44.9374C517.396 45.2205 516.015 45.936 514.922 46.9955C514.922 46.9955 515.322 44.2392 519.532 43.9992C519.532 43.9992 521.678 41.0465 522.252 40.8647C522.252 40.8647 518.063 40.5156 515.525 41.6429C515.525 41.6429 517.758 39.0393 523.023 40.1884L525.932 37.7957C525.932 37.7957 520.42 37.0684 518.078 37.8684C518.078 37.8684 520.769 35.5703 526.725 37.2502L529.925 35.3303C529.925 35.3303 525.227 34.3194 522.42 34.683C522.42 34.683 525.38 33.0903 530.863 34.8212L533.154 33.7885C533.154 33.7885 529.707 33.1121 528.703 33.0103C527.699 32.9085 527.634 32.6249 527.634 32.6249C529.817 32.2617 532.058 32.5135 534.107 33.3521C534.107 33.3521 538.987 31.5776 538.907 31.2722Z" fill="#39DC00"/>
<path opacity="0.1" d="M780.415 530.907C791.231 530.907 800 529.425 800 527.598C800 525.77 791.231 524.289 780.415 524.289C769.598 524.289 760.83 525.77 760.83 527.598C760.83 529.425 769.598 530.907 780.415 530.907Z" fill="#6C63FF"/>
<path opacity="0.1" d="M34.0139 585.953C44.8305 585.953 53.599 584.471 53.599 582.644C53.599 580.816 44.8305 579.335 34.0139 579.335C23.1974 579.335 14.4288 580.816 14.4288 582.644C14.4288 584.471 23.1974 585.953 34.0139 585.953Z" fill="#6C63FF"/>
<path opacity="0.1" d="M147.706 590.106C158.523 590.106 167.292 588.624 167.292 586.797C167.292 584.969 158.523 583.488 147.706 583.488C136.89 583.488 128.121 584.969 128.121 586.797C128.121 588.624 136.89 590.106 147.706 590.106Z" fill="#6C63FF"/>
<path d="M737.55 568.004C753.701 568.004 766.793 565.79 766.793 563.059C766.793 560.328 753.701 558.113 737.55 558.113C721.4 558.113 708.307 560.328 708.307 563.059C708.307 565.79 721.4 568.004 737.55 568.004Z" fill="#6C63FF"/>
<path d="M749.637 554.979C750.972 553.89 751.946 552.422 752.43 550.768C752.786 549.103 752.074 547.095 750.481 546.485C748.692 545.801 746.779 547.045 745.332 548.296C743.885 549.546 742.219 550.972 740.321 550.71C741.297 549.826 742.028 548.704 742.441 547.454C742.854 546.203 742.935 544.867 742.677 543.576C742.595 543.04 742.369 542.538 742.023 542.121C741.027 541.059 739.23 541.51 738.038 542.347C734.256 545.008 733.201 550.143 733.179 554.768C732.801 553.103 733.121 551.365 733.114 549.677C733.107 547.99 732.634 546.041 731.194 545.146C730.3 544.669 729.298 544.434 728.285 544.463C726.583 544.397 724.692 544.565 723.529 545.808C722.074 547.357 722.46 549.946 723.718 551.626C724.976 553.306 726.881 554.397 728.634 555.568C730.045 556.407 731.248 557.553 732.154 558.921C732.26 559.113 732.348 559.315 732.416 559.524H743.07C745.454 558.312 747.663 556.783 749.637 554.979Z" fill="#6C63FF"/>
<path d="M43.1556 493.998C43.1556 493.998 47.1482 499.22 41.3083 507.089C35.4684 514.958 30.654 521.634 32.5812 526.55C32.5812 526.55 41.3883 511.903 48.5809 511.693C55.7735 511.482 51.0391 502.805 43.1556 493.998Z" fill="#6C63FF"/>
<path opacity="0.1" d="M43.1556 493.998C43.5023 494.503 43.7765 495.054 43.9701 495.635C50.9663 503.853 54.6899 511.525 47.97 511.714C41.701 511.896 34.1521 523.096 32.3849 525.925C32.4466 526.144 32.5195 526.36 32.603 526.572C32.603 526.572 41.4101 511.925 48.6027 511.714C55.7953 511.503 51.0391 502.805 43.1556 493.998Z" fill="black"/>
<path d="M50.5809 500.653C50.5809 502.493 50.37 503.984 50.1155 503.984C49.8609 503.984 49.6573 502.529 49.6573 500.653C49.6573 498.776 49.9118 499.678 50.1736 499.678C50.4355 499.678 50.5809 498.813 50.5809 500.653Z" fill="#FFD037"/>
<path d="M53.0972 502.849C51.4827 503.729 50.0791 504.26 49.9554 504.034C49.8318 503.809 51.0463 502.922 52.6608 502.042C54.2754 501.162 53.6354 501.802 53.759 502.042C53.8826 502.282 54.7408 501.969 53.0972 502.849Z" fill="#FFD037"/>
<path d="M22.0505 493.998C22.0505 493.998 18.0579 499.22 23.8905 507.089C29.7231 514.958 34.5448 521.634 32.6176 526.55C32.6176 526.55 23.8032 511.903 16.6179 511.693C9.43256 511.482 14.1598 502.805 22.0505 493.998Z" fill="#6C63FF"/>
<path opacity="0.1" d="M22.0505 493.998C21.7006 494.501 21.4262 495.052 21.236 495.635C14.2397 503.853 10.5089 511.525 17.236 511.714C23.4977 511.896 31.054 523.096 32.8139 525.925C32.7546 526.144 32.6842 526.36 32.603 526.572C32.603 526.572 23.7887 511.925 16.6033 511.714C9.418 511.503 14.1597 502.805 22.0505 493.998Z" fill="black"/>
<path d="M14.6252 500.653C14.6252 502.493 14.8288 503.984 15.0834 503.984C15.3379 503.984 15.5415 502.529 15.5415 500.653C15.5415 498.776 15.287 499.678 15.0325 499.678C14.7779 499.678 14.6252 498.813 14.6252 500.653Z" fill="#FFD037"/>
<path d="M12.0725 502.849C13.687 503.729 15.0979 504.26 15.2215 504.034C15.3452 503.809 14.1306 502.922 12.5161 502.042C10.9016 501.162 11.5343 501.802 11.418 502.042C11.3016 502.282 10.458 501.969 12.0725 502.849Z" fill="#FFD037"/>
<path d="M15.8979 525.889C15.8979 525.889 27.0686 525.547 30.4431 523.147C33.8176 520.747 47.6282 517.889 48.4646 521.692C49.3009 525.496 65.2497 540.819 52.639 540.921C40.0284 541.023 23.3378 538.95 19.9778 536.907C16.6179 534.863 15.8979 525.889 15.8979 525.889Z" fill="#A8A8A8"/>
<path opacity="0.2" d="M52.8499 539.619C40.2393 539.721 23.5487 537.648 20.1887 535.605C17.6288 534.048 16.6106 528.456 16.2688 525.874H15.8979C15.8979 525.874 16.6252 534.885 19.9633 536.928C23.3014 538.972 40.0138 541.045 52.6245 540.943C56.2608 540.943 57.519 539.612 57.4535 537.699C56.9444 538.87 55.5626 539.597 52.8499 539.619Z" fill="black"/>
<g filter="url(#filter0_d_1_4)">
<path d="M791.81 464.384V494.072H586.341V472.783L713.685 275.712H743.177L711.536 332.744L627.357 464.384H791.81ZM752.161 275.712V560.087H716.029V275.712H752.161Z" fill="#101D71"/>
</g>
<path d="M427.552 318.078C419.056 303.723 402.248 303.054 402.248 303.054C402.248 303.054 385.87 300.96 375.363 322.823C365.57 343.201 352.054 362.877 373.187 367.647L377.004 355.766L379.368 368.531C382.377 368.748 385.396 368.799 388.41 368.686C411.042 367.955 432.595 368.9 431.901 360.779C430.979 349.983 435.727 331.891 427.552 318.078Z" fill="#2F2E41"/>
<path d="M371.98 443.793C371.731 445.372 371.369 446.931 370.896 448.459C370.365 449.954 369.544 451.336 369.058 452.847C367.509 457.661 369.656 463.029 373.087 466.745C376.062 469.954 379.902 472.235 384.144 473.31C387.239 474.089 390.457 474.201 393.647 474.309C402.479 474.609 411.538 474.876 419.906 472.038C422.55 471.119 425.104 469.959 427.535 468.572C428.303 468.207 428.979 467.674 429.515 467.014C430.153 466.105 430.235 464.926 430.229 463.816C430.211 460.072 429.451 456.347 429.632 452.607C429.732 450.536 430.119 448.466 429.928 446.401C429.664 444.056 428.682 441.849 427.115 440.084C425.549 438.318 423.475 437.08 421.178 436.539C418.804 436.029 416.342 436.307 413.925 436.539C407.651 437.142 401.351 437.423 395.048 437.383C388.608 437.342 382.209 436.359 375.801 436.256C373.906 436.226 373.944 436.81 373.341 438.644C372.786 440.332 372.331 442.051 371.98 443.793Z" fill="#2F2E41"/>
<path d="M390.255 351.344C389.946 352.965 389.611 354.644 388.638 355.976C387.517 357.508 385.691 358.384 384.485 359.85C382.671 362.057 382.567 365.162 382.56 368.019C382.553 370.651 382.606 373.458 384.074 375.642C385.026 377.06 386.476 378.054 387.892 379.009C393.396 382.718 399.343 386.494 405.979 386.616C408.729 386.667 411.677 385.956 413.486 383.885C414.267 382.913 414.881 381.817 415.304 380.643C417 376.46 418.029 372.037 418.352 367.535C418.503 365.417 418.488 363.237 417.771 361.238C416.965 358.99 415.335 357.141 414.258 355.01C412.984 352.476 412.519 349.612 412.923 346.805C412.977 346.608 412.96 346.397 412.877 346.211C412.788 346.111 412.677 346.033 412.554 345.982C412.43 345.932 412.296 345.911 412.163 345.921L399.005 344.974C397.779 344.913 396.559 344.774 395.352 344.556C394.642 344.412 392.769 343.405 392.092 343.673C390.84 344.168 390.512 350.001 390.255 351.344Z" fill="#FFB8B8"/>
<path opacity="0.1" d="M390.255 351.344C389.946 352.965 389.611 354.644 388.638 355.976C387.517 357.508 385.691 358.384 384.485 359.85C382.671 362.057 382.567 365.162 382.56 368.019C382.553 370.651 382.606 373.458 384.074 375.642C385.026 377.06 386.476 378.054 387.892 379.009C393.396 382.718 399.343 386.494 405.979 386.616C408.729 386.667 411.677 385.956 413.486 383.885C414.267 382.913 414.881 381.817 415.304 380.643C417 376.46 418.029 372.037 418.352 367.535C418.503 365.417 418.488 363.237 417.771 361.238C416.965 358.99 415.335 357.141 414.258 355.01C412.984 352.476 412.519 349.612 412.923 346.805C412.977 346.608 412.96 346.397 412.877 346.211C412.788 346.111 412.677 346.033 412.554 345.982C412.43 345.932 412.296 345.911 412.163 345.921L399.005 344.974C397.779 344.913 396.559 344.774 395.352 344.556C394.642 344.412 392.769 343.405 392.092 343.673C390.84 344.168 390.512 350.001 390.255 351.344Z" fill="black"/>
<path d="M402.839 353.109C413.5 353.109 422.143 344.466 422.143 333.805C422.143 323.143 413.5 314.5 402.839 314.5C392.177 314.5 383.534 323.143 383.534 333.805C383.534 344.466 392.177 353.109 402.839 353.109Z" fill="#FFB8B8"/>
<path d="M392.963 377.041C393.969 378.093 395.035 379.134 396.354 379.751C397.696 380.306 399.137 380.58 400.589 380.557C404.069 380.655 407.842 380.018 410.262 377.516C413.383 374.291 413.28 369.09 415.726 365.328C415.923 364.986 416.192 364.692 416.514 364.466C416.924 364.242 417.388 364.136 417.854 364.157C420.943 364.128 423.634 366.132 426.063 368.041C427.151 368.897 428.266 369.783 428.952 370.984C429.432 371.921 429.761 372.928 429.926 373.968C431.131 379.851 431.522 385.866 431.909 391.859C432.123 395.169 432.337 398.482 432.321 401.799C432.269 412.726 429.729 423.471 427.203 434.103C426.878 435.473 426.432 437.004 425.187 437.66C424.631 437.91 424.035 438.055 423.427 438.09C416.193 438.939 408.943 439.79 401.66 439.902C398.818 439.946 395.977 439.877 393.137 439.696C392.648 439.689 392.163 439.605 391.701 439.445C391.074 439.144 390.535 438.686 390.136 438.116C386.196 433.152 385.964 426.289 385.989 419.951C386.051 404.456 386.604 388.974 387.65 373.504C387.736 372.227 387.755 370.676 386.835 369.672C388.492 372.324 390.796 374.777 392.963 377.041Z" fill="#D0CDE1"/>
<path d="M388.874 354.752C388.222 355.932 383.415 358.863 382.487 359.841C377.302 365.306 367.839 365.101 363.097 370.955C361.428 373.014 360.562 375.602 359.924 378.175C359.022 381.813 358.541 385.782 360.051 389.212C361.505 392.514 364.564 394.796 366.641 397.745C368.922 400.983 369.948 404.914 370.93 408.751C371.656 411.584 372.388 414.487 372.105 417.397C371.784 420.707 370.182 423.737 369.237 426.924C368.291 430.112 368.128 433.908 370.314 436.413C371.92 438.254 374.44 438.983 376.848 439.394C379.932 439.857 383.042 440.128 386.159 440.204C388.912 440.326 391.946 440.35 394.062 438.585C395.732 437.193 396.458 434.933 396.552 432.761C396.646 430.589 396.194 428.436 395.911 426.281C395.617 424.046 395.504 421.792 395.41 419.541C394.987 409.437 394.929 399.327 395.237 389.211C395.301 387.106 395.379 384.975 394.93 382.917C394.339 380.211 392.877 377.793 391.656 375.306C389.234 370.371 388.089 365.577 388.463 360.091C388.833 354.677 391.194 350.552 388.874 354.752Z" fill="#101D71"/>
<path d="M415.982 355.162C416.975 356.183 420.349 356.52 421.613 357.177C422.801 357.726 424.041 358.155 425.314 358.459C429.922 359.788 434.305 361.8 438.318 364.427C439.152 364.915 439.889 365.551 440.492 366.305C441.199 367.288 441.456 368.515 441.695 369.702C442.314 372.766 442.936 375.867 442.797 378.99C442.649 382.305 441.651 385.515 440.66 388.682L436.959 400.515C434.196 409.347 431.416 418.266 430.638 427.488C430.208 432.599 430.4 437.743 431.208 442.808C431.289 443.317 431.358 443.901 431.021 444.292C430.777 444.533 430.457 444.68 430.115 444.709C428.329 444.988 426.6 444.077 424.981 443.271C420.034 440.809 414.755 439.082 409.31 438.143C411.438 435.068 413.079 431.684 414.177 428.109C414.801 425.84 415.292 423.535 415.648 421.209L417.37 411.25C418.07 407.611 418.563 403.934 418.847 400.238C418.977 398.851 418.896 397.453 418.607 396.09C418.21 394.793 417.683 393.54 417.035 392.349C414.197 386.447 412.866 379.711 413.982 373.258C414.471 370.434 415.42 367.606 415.024 364.767C414.644 362.038 415.039 359.917 414.339 357.216C411.464 346.126 414.113 353.242 415.982 355.162Z" fill="#101D71"/>
<path d="M363.048 380.287C361.754 382.971 359.591 385.258 358.855 388.146C358.569 389.495 358.446 390.874 358.49 392.253C358.472 394.331 358.461 396.452 359.099 398.429C359.51 399.703 360.178 400.877 360.66 402.125C361.331 403.869 361.63 405.735 361.538 407.601C361.408 410.187 360.529 412.697 360.461 415.285C360.353 419.355 362.235 423.181 364.072 426.815C364.534 425.67 365.241 424.64 366.143 423.796C367.045 422.953 368.121 422.317 369.294 421.933C370.468 421.549 371.711 421.426 372.937 421.572C374.163 421.719 375.342 422.131 376.392 422.781C376.877 422.334 376.928 421.599 376.947 420.939C377.083 416.218 377.214 411.496 377.34 406.773C377.539 399.47 377.729 392.07 376.049 384.96C375.29 381.749 374.11 378.552 371.946 376.062C370.807 374.751 366.939 371.297 365.069 372.766C364.228 373.427 364.425 375.225 364.291 376.135C364.09 377.574 363.671 378.974 363.048 380.287Z" fill="#101D71"/>
<path d="M443.175 372.551C443.787 374.456 443.823 376.492 443.835 378.493C443.86 382.575 443.806 386.656 443.673 390.737C443.605 392.826 443.511 394.944 442.878 396.936C442.46 398.25 441.815 399.482 441.384 400.791C440.091 404.715 440.797 408.97 440.908 413.1C440.986 414.437 440.872 415.778 440.569 417.082C439.887 419.642 438.053 421.711 436.773 424.031C435.558 426.234 434.824 428.703 433.373 430.759C431.921 432.814 429.408 434.442 426.972 433.812C425.126 433.333 423.815 431.7 422.908 430.023C420.928 426.336 420.251 422.089 420.986 417.969C421.897 412.956 424.841 408.51 425.903 403.527C427.361 396.685 425.145 389.625 425.211 382.629C425.181 381.533 425.33 380.438 425.651 379.39C426.208 377.792 427.405 376.516 428.51 375.234C429.891 373.633 431.173 371.949 432.351 370.193C433.142 369.013 434.217 365.978 435.619 365.726C438.751 365.163 442.398 370.132 443.175 372.551Z" fill="#101D71"/>
<path d="M346.799 440.751C345.067 440.315 343.283 440.126 341.499 440.187C339.624 440.291 337.792 440.792 336.126 441.659C334.46 442.525 332.998 443.736 331.836 445.211C330.674 446.686 329.84 448.392 329.388 450.214C328.937 452.037 328.878 453.935 329.217 455.782C329.649 457.783 330.356 459.714 331.317 461.521C332.723 464.374 334.409 467.22 337.011 469.048C338.533 470.117 340.295 470.784 342.036 471.44L355.741 476.603C357.758 477.362 359.774 478.122 361.81 478.826C372.04 482.362 382.705 484.482 393.509 485.128C396.8 485.324 400.141 485.379 403.351 484.629C404.113 484.452 404.926 484.186 405.367 483.54C405.628 483.085 405.782 482.576 405.817 482.053L406.661 476.149C406.78 475.317 406.894 474.442 406.589 473.66C406.203 472.668 405.234 472.043 404.311 471.513C395.301 466.338 384.78 463.483 377.196 456.38C375.41 454.708 373.916 452.058 371.747 450.922C369.287 449.634 366.39 448.899 363.847 447.712C358.289 445.117 352.823 442.135 346.799 440.751Z" fill="#2F2E41"/>
<path opacity="0.1" d="M360.482 448.71C365.326 450.228 385.779 460.745 389.285 464.416C388.815 464.586 372.871 455.651 372.393 455.507C368.044 454.202 363.672 452.888 359.542 450.978C358.711 450.594 354.145 448.788 354.352 447.74C354.585 446.557 359.622 448.441 360.482 448.71Z" fill="black"/>
<path d="M420.918 488.19C421.193 488.21 421.465 488.13 421.686 487.964C421.782 487.84 421.853 487.698 421.894 487.546C421.936 487.395 421.946 487.236 421.926 487.08C421.918 484.399 421.911 481.718 421.903 479.037C419.59 477.935 417.003 477.582 414.463 477.242L402.614 475.658C402.887 475.695 400.762 480.762 401.088 481.438C401.662 482.631 406.05 483.687 407.289 484.25C411.594 486.207 416.068 488.359 420.918 488.19Z" fill="#FFB8B8"/>
<path d="M383.742 479.009C381.505 479.365 379.008 479.68 377.559 481.422C375.721 483.63 376.504 486.923 377.38 489.658C377.51 490.212 377.772 490.726 378.142 491.157C378.74 491.747 379.657 491.834 380.495 491.887C382.536 492.016 384.707 492.117 386.49 491.116C387.297 490.583 388.074 490.005 388.818 489.386C390.133 488.511 391.578 487.85 393.099 487.428C395.897 486.549 398.776 485.955 401.693 485.657C402.842 485.605 403.98 485.404 405.078 485.061C406.154 484.655 407.15 483.852 407.463 482.746C407.876 481.284 407.026 479.794 406.211 478.512C405.196 476.915 404.121 475.234 402.608 474.058C400.4 472.343 399.308 473.66 397.084 474.757C392.874 476.835 388.377 478.268 383.742 479.009Z" fill="#FFB8B8"/>
<path d="M377.895 481.024L363.69 476.826C361.962 476.315 360.205 475.8 358.404 475.801C356.602 475.803 354.717 476.393 353.549 477.765C352.447 479.057 352.132 480.824 351.857 482.5L351.27 486.086C350.972 487.908 350.672 489.765 350.941 491.592C351.21 493.418 352.142 495.243 353.763 496.128C355.729 497.2 358.138 496.676 360.332 496.228C364.764 495.322 369.271 494.839 373.794 494.784C375.494 494.764 377.277 494.785 378.78 493.989C380.566 493.042 381.634 491.041 381.818 489.028C382.098 485.965 381.077 481.965 377.895 481.024Z" fill="#2F2E41"/>
<path d="M426.502 477.365C428.343 477.043 429.968 475.996 431.733 475.378C434.217 474.509 436.908 474.509 439.54 474.518C440.506 474.522 441.534 474.544 442.339 475.079C443.498 475.851 443.795 477.395 443.992 478.773L445.181 487.091C445.405 488.655 445.627 490.261 445.278 491.802C444.929 493.344 443.879 494.83 442.349 495.227C440.492 495.71 438.671 494.523 436.917 493.744C432.533 491.796 427.437 492.294 422.867 490.838C422.018 490.567 421.11 490.154 420.764 489.334C420.608 488.872 420.552 488.382 420.6 487.897C420.679 485.223 420.115 481.573 420.92 479.018C421.643 476.72 424.446 477.365 426.502 477.365Z" fill="#2F2E41"/>
<path d="M456.563 437.403C459.402 436.691 462.344 436.49 465.253 436.809C467.576 437.065 469.97 437.712 471.666 439.32C473.73 441.277 474.393 444.303 474.449 447.147C474.54 452.812 472.661 458.333 469.133 462.766C468.272 463.888 467.247 464.874 466.094 465.692C464.85 466.47 463.524 467.109 462.14 467.597L431.447 479.703C423.373 482.888 415.27 486.082 406.847 488.182C406.617 488.293 406.367 488.357 406.112 488.37C405.856 488.383 405.601 488.345 405.36 488.258C405.12 488.171 404.9 488.036 404.712 487.863C404.524 487.689 404.373 487.48 404.268 487.247C401.578 483.405 399.322 479.278 397.541 474.941C397.456 474.838 397.398 474.716 397.371 474.586C397.343 474.455 397.348 474.32 397.384 474.192C397.42 474.064 397.486 473.946 397.577 473.849C397.668 473.752 397.781 473.678 397.907 473.634L419.616 461.16C421.171 460.267 422.744 459.36 424.035 458.116C424.973 457.207 425.741 456.137 426.303 454.957C426.753 454.018 426.795 451.8 427.37 451.105C427.933 450.425 429.858 450.37 430.747 450.103C432.001 449.719 433.229 449.254 434.424 448.713C439.28 446.541 443.604 443.384 448.26 440.84C450.871 439.347 453.661 438.192 456.563 437.403Z" fill="#2F2E41"/>
<path opacity="0.1" d="M444.256 446.718C440.526 449.519 435.697 452.094 432 454.969C430.739 455.951 409.708 467.775 409.41 469.345C412.859 469.926 434.827 454.557 437.97 453.024C441.114 451.49 443.9 449.328 446.661 447.181C447.364 446.634 450.346 444.99 448.326 444.378C447.189 444.034 445.096 446.158 444.256 446.718Z" fill="black"/>
<path d="M423.796 316.694L407.19 307.996L384.259 311.555L379.514 332.509L391.325 332.055L394.624 324.357V331.928L400.074 331.718L403.237 319.462L405.213 332.509L424.587 332.114L423.796 316.694Z" fill="#2F2E41"/>
<path d="M420.089 359.681H384.356V402.807H420.089V359.681Z" fill="#3F3D56"/>
<path d="M367.392 434.689C368.213 435.914 369.174 437.112 370.492 437.772C371.332 438.156 372.249 438.343 373.172 438.318C374.096 438.293 375.002 438.058 375.82 437.63C377.455 436.753 378.793 435.411 379.665 433.774C381.47 430.587 381.844 426.774 381.619 423.119C381.393 419.463 380.613 415.864 380.267 412.218C380.016 409.567 379.996 406.901 379.976 404.239C379.913 403.679 380.031 403.114 380.311 402.625C380.711 402.079 381.443 401.929 382.091 401.736C385.733 400.654 388.151 397.24 389.884 393.859C391.042 391.601 392.048 389.133 391.825 386.606C391.602 384.078 389.785 381.532 387.261 381.274C385.18 381.062 383.259 382.384 381.758 383.84C377.971 387.538 375.538 392.402 374.848 397.649C374.519 400.219 374.613 402.858 373.914 405.353C372.422 410.68 367.753 413.946 365.426 418.739C362.862 424.02 364.277 430.016 367.392 434.689Z" fill="#FFB8B8"/>
<path d="M436.104 414.339C435.573 415.574 434.8 416.691 433.831 417.622C432.861 418.554 431.715 419.282 430.459 419.763C428.898 420.39 427.177 420.495 425.552 420.064C424.745 419.84 424.002 419.434 423.378 418.876C422.755 418.318 422.268 417.624 421.956 416.848C421.708 416.066 421.571 415.253 421.552 414.433C421.318 410.841 421.408 407.139 422.713 403.784C423.216 402.49 423.895 401.263 424.292 399.933C424.682 398.396 424.882 396.818 424.886 395.232L425.315 385.432C425.386 384.72 425.337 384.002 425.17 383.306C424.742 381.888 423.417 380.967 422.2 380.121C419.263 378.079 416.361 375.695 414.938 372.413C414.449 371.425 414.274 370.311 414.436 369.22C414.837 367.274 416.802 366.014 418.743 365.59C420.013 365.312 421.326 365.294 422.603 365.538C423.881 365.781 425.095 366.28 426.174 367.006C427.254 367.731 428.175 368.667 428.882 369.758C429.59 370.849 430.069 372.072 430.292 373.353C430.484 374.459 430.481 375.588 430.594 376.705C430.832 379.075 431.584 381.359 432.055 383.693C433.214 389.443 432.613 395.387 433.759 401.136C434.718 405.943 438.331 409.079 436.104 414.339Z" fill="#FFB8B8"/>
<g filter="url(#filter1_d_1_4)">
<path d="M208.82 467.297V496.984H3.35156V475.695L130.695 278.625H160.188L128.547 335.656L44.3672 467.297H208.82ZM169.172 278.625V563H133.039V278.625H169.172Z" fill="#101D71"/>
</g>
<path opacity="0.1" d="M371.634 505.635C453.169 505.635 519.267 492.285 519.267 475.818C519.267 459.35 453.169 446 371.634 446C290.098 446 224 459.35 224 475.818C224 492.285 290.098 505.635 371.634 505.635Z" fill="#6C63FF"/>
</g>
<defs>
<filter id="filter0_d_1_4" x="582.341" y="275.712" width="213.469" height="292.375" filterUnits="userSpaceOnUse" color-interpolation-filters="sRGB">
<feFlood flood-opacity="0" result="BackgroundImageFix"/>
<feColorMatrix in="SourceAlpha" type="matrix" values="0 0 0 0 0 0 0 0 0 0 0 0 0 0 0 0 0 0 127 0" result="hardAlpha"/>
<feOffset dy="4"/>
<feGaussianBlur stdDeviation="2"/>
<feColorMatrix type="matrix" values="0 0 0 0 0 0 0 0 0 0 0 0 0 0 0 0 0 0 0.25 0"/>
<feBlend mode="normal" in2="BackgroundImageFix" result="effect1_dropShadow_1_4"/>
<feBlend mode="normal" in="SourceGraphic" in2="effect1_dropShadow_1_4" result="shape"/>
</filter>
<filter id="filter1_d_1_4" x="-0.648438" y="278.625" width="213.469" height="292.375" filterUnits="userSpaceOnUse" color-interpolation-filters="sRGB">
<feFlood flood-opacity="0" result="BackgroundImageFix"/>
<feColorMatrix in="SourceAlpha" type="matrix" values="0 0 0 0 0 0 0 0 0 0 0 0 0 0 0 0 0 0 127 0" result="hardAlpha"/>
<feOffset dy="4"/>
<feGaussianBlur stdDeviation="2"/>
<feColorMatrix type="matrix" values="0 0 0 0 0 0 0 0 0 0 0 0 0 0 0 0 0 0 0.25 0"/>
<feBlend mode="normal" in2="BackgroundImageFix" result="effect1_dropShadow_1_4"/>
<feBlend mode="normal" in="SourceGraphic" in2="effect1_dropShadow_1_4" result="shape"/>
</filter>
<clipPath id="clip0_1_4">
<rect width="800" height="590.106" fill="white"/>
</clipPath>
</defs>
</svg>
